<svg xmlns="http://www.w3.org/2000/svg" viewBox="0 0 497.64 131.08"><defs><style>.cls-1{fill:#fff;}</style></defs><title>planet9text</title><g id="Layer_2" data-name="Layer 2"><g id="Layer_1-2" data-name="Layer 1"><path class="cls-1" d="M41.91,97.15A30.49,30.49,0,0,1,23.2,90.48s-7.1,30.45-8.12,37.41c-.43,1.89-1.3,3.19-3.62,3.19C7.83,131.08,0,127.46,0,123.69c0-5.08,17.4-72.94,22.77-91.64.43-2,2.61-3,4.64-3,2.46,0,10.15,8.56,10.15,8.56S46.11,29,54.52,29c6.38,0,17.11,8.12,17.11,15.52,0,8.41-2.61,20.73-8.12,32a20.3,20.3,0,0,0,3.77.58c10.3,0,17.11-14.21,17.11-14.21s1.31-2.61,3-2.61c2,0,5.22,2.32,5.22,4.06s-2,5.08-2,5.08S81.78,86.57,63.37,86.57c-1.74,0-5.37-.15-5.37-.15C53.65,92.08,47.85,97.15,41.91,97.15ZM37.7,86.57c1.45,0,3.34-1.31,4.64-2.9C39.73,82.51,38,81.2,38,79.61c0-3,6.09-9,9.28-9,.58,0,1.16.14,1.74.14,3.19-8.84,5.51-19,5.51-24.5,0-2.9-3.19-5.8-5.51-5.8-3.62,0-12.61,6.81-14.79,13.19-2.9,8.12-6.52,20.16-6.52,24.94C27.7,82.51,32.92,86.57,37.7,86.57Z"/><path class="cls-1" d="M112.67,97.15c-6.53,0-21-6.09-21-12.61,0-7.83,16.53-65.83,21.17-80,.73-2.18,1.89-3,3-3,2.75,0,12.47,5.37,12.47,7.83a15.78,15.78,0,0,1-.58,3.63c-1.45,4.64-19,63.36-19,70.18,0,1.88,4.06,4.06,5.37,4.06,4.35,0,12.18-11.17,19.28-24.22,0,0,1.31-2.61,3.19-2.61s4.93,2.32,4.93,4.06-1.88,5.08-1.88,5.08C131.81,84,123.11,97.15,112.67,97.15Z"/><path class="cls-1" d="M220.69,60.32c1.89,0,4.93,2.32,4.93,4.06s-1.88,5.08-1.88,5.08c-8,14.5-16.53,27.69-27,27.69-6.53,0-18.56-5.51-19.72-9.57,0,0-8.7,9.57-16.1,9.57-6.67,0-18.7-9.13-18.7-17C142.25,61.05,159.5,29,172.7,29c11.6,0,19,8.7,19,8.7,3.77,0,12.47,1,12.47,4.64,0,5.08-9.86,29.15-9.86,40.75,0,1.88,2.61,4.06,3.92,4.06,4.35,0,12.18-11.17,19.28-24.22C217.5,62.93,218.81,60.32,220.69,60.32ZM178.06,40.6c-7.25,0-18.85,26.83-18.85,39.59,0,3.33,2.61,5.8,5.08,5.8,2.9,0,10.15-5.08,14.21-13.49,2.9-6.09,7.39-23.63,7.39-27.69C185.89,42.49,180.38,40.6,178.06,40.6Z"/><path class="cls-1" d="M280.43,87.15c4.35,0,12.18-11.17,19.28-24.22,0,0,1.31-2.61,3.2-2.61s4.92,2.32,4.92,4.06S306,69.46,306,69.46c-8,14.5-16.53,27.69-27,27.69-6.53,0-19.58-6.09-19.58-12.61,0-9.28,8.12-32.48,8.12-38,0-2.47-2.46-4.93-4.35-4.93-3,0-11.16,3.62-13.34,9.13-3.77,9.57-10.44,38.86-11.31,43.07-.58,1.88-1,3.33-3.19,3.33-3.33,0-11.89-3.62-11.89-7.54,0-3.77,11-47.7,14.07-57.56a5.09,5.09,0,0,1,4.93-3c2.46,0,9.28,8.56,9.28,8.56S265.93,29,273.47,29c4.35,0,12.18,6,12.18,11.31,0,6.82-9,35.09-9,42.78C276.66,85,279.12,87.15,280.43,87.15Z"/><path class="cls-1" d="M339.15,29c7.4,0,20.74,7.25,20.74,13.49,0,7.25-9.28,30.45-18.71,30.45a58,58,0,0,1-13.63-2,18,18,0,0,0-1.16,7.1c0,3.48,6.24,8.85,12.47,8.85,7.83,0,19.29-5.37,28.71-23.93,0,0,1.16-2.61,3.05-2.61s4.93,2.32,4.93,4.06-1.74,5.08-1.74,5.08c-9.86,18.7-22.48,27.69-34.22,27.69-12.76,0-30.31-9.42-30.31-20.73C309.28,60,325.67,29,339.15,29Zm9.28,14.94c0-2-2.32-3.63-4.35-3.63-5.65,0-14.21,17.26-15.51,24.07C342.49,64.38,348.43,47.85,348.43,43.94Z"/><path class="cls-1" d="M404.83,30.45h12.48c.87,0,1.74.44,1.74,1.31,0,1.88-2.76,7.68-5.08,7.68h-11.6C397.58,55.83,392.22,75.69,392.22,79a8.3,8.3,0,0,0,8.12,8.12c4.2,0,12.18-11.17,19.28-24.22,0,0,1.31-2.61,3.2-2.61s4.93,2.32,4.93,4.06-1.89,5.08-1.89,5.08c-8,14.5-16.53,27.69-27.11,27.69-9.87,0-23.5-6.81-23.5-14.06,0-3.92,5.22-24.8,10.15-43.65h-4.93A1.58,1.58,0,0,1,378.88,38c0-1.74,2.61-7.54,4.93-7.54h4.06C390.62,20.3,392.94,11.89,394,8.7c.58-2,1.88-3.19,3-3.19,2.91,0,12.48,5.51,12.48,8.12a15.8,15.8,0,0,1-.58,3.48Z"/><path class="cls-1" d="M453.26,86a109.49,109.49,0,0,0,16.82-22.62,38.42,38.42,0,0,1-11.45,2.32c-8,0-24.07-11.6-24.07-19.87C434.56,31.18,454.13,0,468.92,0c9,0,28.72,12.18,28.72,22.19,0,32.33-17.84,59.45-31,73.08a5.06,5.06,0,0,1-3.78,1.88c-2,0-12-4.35-12-7.39C450.8,88.31,451.67,87.58,453.26,86Zm21.47-34.51c2-3.77,7-18.71,7-30.31,0-5.36-5.8-10-9-10-7.69,0-19.44,24.79-19.44,36,0,4.64,5.66,8.84,8.7,8.84C465.3,56,473.57,53.65,474.73,51.48Z"/></g></g></svg>